<svg width="444" height="290" fill="none" xmlns="http://www.w3.org/2000/svg"><ellipse cx="336" cy="281.5" rx="108" ry="8.5" fill="#E7EEEF"/><ellipse cx="108" cy="281.5" rx="108" ry="8.5" fill="#E7EEEF"/><path d="M257.88 39.247c0 17.44-14.151 31.592-31.592 31.592-17.44 0-31.592-14.151-31.592-31.592 0-17.44 14.152-31.592 31.592-31.592 17.441 0 31.592 14.075 31.592 31.592z" stroke="#39424E" stroke-width=".765" stroke-miterlimit="10" stroke-linecap="round"/><path d="M264 45.673c-1.453 8.643-5.814 16.216-12.01 21.877M237.686 2.683c3.595 1.147 6.961 2.754 9.944 4.82M189.877 27.62C194.773 12.168 209.23 1 226.288 1c.918 0 1.836 0 2.678.076M238.451 75.429a37.888 37.888 0 01-12.163 1.989c-15.757 0-29.297-9.562-35.187-23.178" stroke="#B7C9CC" stroke-width=".765" stroke-miterlimit="10" stroke-linecap="round"/><path d="M213.131 20.965c4.361 6.808 8.797 13.54 13.157 20.347 5.508-3.136 11.092-6.272 16.6-9.408" stroke="#39424E" stroke-width=".765" stroke-miterlimit="10" stroke-linecap="round"/><path d="M228.966 40.471c0 1.3-1.071 2.372-2.372 2.372-1.3 0-2.371-1.071-2.371-2.372 0-1.3 1.071-2.371 2.371-2.371a2.383 2.383 0 012.372 2.371z" fill="#097BBF"/><path d="M228.966 40.471c0 1.3-1.071 2.372-2.372 2.372-1.3 0-2.371-1.071-2.371-2.372 0-1.3 1.071-2.371 2.371-2.371a2.383 2.383 0 012.372 2.371z" fill="#E7EEEF" stroke="#39424E" stroke-width=".765" stroke-miterlimit="10" stroke-linecap="round"/><path d="M332.592 223.083c4.322 8.112 8.719 16.225 13.041 24.413l10.463-5.231c-3.185-7.809-6.369-15.695-9.553-23.504-4.625 1.441-9.326 2.881-13.951 4.322z" stroke="#39424E" stroke-width=".576" stroke-miterlimit="10"/><path d="M319.551 205.721c5.838 8.415 11.601 16.831 17.439 25.247 1.516-.076 3.26-.379 5.231-.834 3.412-.91 5.99-2.275 7.809-3.488-3.487-9.022-6.975-17.969-10.463-26.991-2.881-1.44-5.838-2.881-8.719-4.322-3.791 3.412-7.506 6.9-11.297 10.388zM355.262 239.687c-1.213 1.516-4.246 4.852-8.719 5.231a6.691 6.691 0 01-1.744 0c-2.881 3.488-5.232 6.445-6.975 8.719-4.549 5.99-6.217 8.719-5.232 10.463.303.455.607.758.834.834 2.351 1.517 6.217-.682 17.438-7.809 6.596-4.246 8.719-5.686 8.719-7.809 0-.758-.909-2.578-2.577-6.066a200.731 200.731 0 00-1.744-3.563z" fill="#39424E"/><path d="M309.089 154.316h35.71v6.975h-35.71v-6.975z" stroke="#39424E" stroke-width=".576" stroke-miterlimit="10"/><path d="M300.37 159.244h-25.627a7.286 7.286 0 01-6.065-3.26c-1.365-2.047-1.592-4.549-.683-6.824l8.492-20.925 4.246 1.744-8.492 21.001c-.379.834-.227 1.744.228 2.502.53.758 1.364 1.213 2.274 1.213h25.627v4.549z" fill="#E7EEEF"/><path d="M300.37 159.244h-25.627a7.286 7.286 0 01-6.065-3.26c-1.365-2.047-1.592-4.549-.683-6.824l8.492-20.925 4.246 1.744-8.492 21.001c-.379.834-.227 1.744.228 2.502.53.758 1.364 1.213 2.274 1.213h25.627v4.549z" stroke="#39424E" stroke-width=".768" stroke-miterlimit="10"/><path d="M273.378 105.565c1.744 10.766 3.488 21.457 5.232 32.223h4.321c-1.743-10.994-3.487-22.063-5.231-33.057l-4.322.834z" fill="#E7EEEF"/><path d="M273.378 105.565c1.744 10.766 3.488 21.457 5.232 32.223h4.321c-1.743-10.994-3.487-22.063-5.231-33.057l-4.322.834z" stroke="#39424E" stroke-width=".768" stroke-miterlimit="10"/><path d="M280.319 89.016l8.84 55.789-6.44 1.02-8.84-55.789 6.44-1.02z" fill="#E7EEEF"/><path d="M280.319 89.016l8.84 55.789-6.44 1.02-8.84-55.789 6.44-1.02z" fill="#B7C9CC" stroke="#39424E" stroke-width=".768" stroke-miterlimit="10"/><path d="M247.752 167.812v111.452M370.198 225.736l-9.553 54.817M412.732 226.343c5.004 17.893 10.008 35.786 14.936 53.603" stroke="#39424E" stroke-width="2.303" stroke-miterlimit="10"/><path d="M293.394 95.102c6.066-5.231 12.207-10.463 18.272-15.694M301.279 96.012c2.578-1.744 5.232-3.488 7.81-5.231M300.37 110.797l33.132-17.363M311.742 112.54c2.047-.834 4.094-1.743 6.066-2.577M303.857 118.682h6.141M303.857 128.235l14.785.834M316.898 121.26h16.604M303.857 136.044c4.094 1.44 8.113 2.881 12.207 4.322" stroke="#B7C9CC" stroke-width=".576" stroke-miterlimit="10" stroke-linecap="round"/><path d="M382.253 75.996a32.749 32.749 0 00-2.578 6.976c-1.744 7.126-2.35 20.091 4.322 23.503.985.455 4.321 1.895 10.463-.834.834 2.35 1.743 4.625 2.577 6.975 5.838-.834 11.6-1.744 17.438-2.578a36.148 36.148 0 01-3.487-7.809c-1.441-4.473-1.744-8.416-1.744-11.297-3.336-9.401-10.387-15.921-18.272-16.528-1.896-.303-5.004-.227-8.719 1.592z" fill="#E7EEEF"/><path d="M382.253 75.996a32.749 32.749 0 00-2.578 6.976c-1.744 7.126-2.35 20.091 4.322 23.503.985.455 4.321 1.895 10.463-.834.834 2.35 1.743 4.625 2.577 6.975 5.838-.834 11.6-1.744 17.438-2.578a36.148 36.148 0 01-3.487-7.809c-1.441-4.473-1.744-8.416-1.744-11.297-3.336-9.401-10.387-15.921-18.272-16.528-1.896-.303-5.004-.227-8.719 1.592z" stroke="#39424E" stroke-width=".768" stroke-miterlimit="10"/><path d="M293.319 212.317c-5.156 9.856-9.402 17.514-11.98 22.366-.758 1.44-2.047 4.397-5.004 7.278l-3.791 3.791a17.835 17.835 0 006.976 3.488c5.307 1.289 9.704-.228 11.297-.834a419.167 419.167 0 004.321-6.065c3.336-4.701 6.52-9.326 9.553-13.951-3.791-5.383-7.582-10.766-11.372-16.073z" stroke="#39424E" stroke-width=".576" stroke-miterlimit="10"/><path d="M275.122 243.174c.758.607 1.592 1.214 2.578 1.744 5.914 3.109 12.283 1.668 14.785.834-.152 1.668-.455 4.094-.834 6.975-.531 3.64-.683 4.019-.834 4.322-1.593 2.957-6.824 2.73-13.951 2.578-17.059-.228-23.124.531-24.413-2.578-.531-1.213-.076-2.426 0-2.578 1.061-2.881 5.686-3.336 9.553-4.321 3.412-.91 8.036-2.806 13.116-6.976zM431.838 109.963c2.577-.986 4.321 0 4.321 0 .758.379 2.199 1.288 2.578 6.065.91 10.311-.834 17.438-.834 17.438s-1.516 6.066-4.321 21.76c-2.199 12.206-3.033 21.684-3.488 28.735 0 0-1.137 18.954-4.322 32.222-.379 1.517-1.061 4.474-3.487 6.976-2.047 2.122-4.474 3.032-6.066 3.487-12.737 3.715-42.988 1.744-43.519 1.744-3.867-.227-9.553-.607-16.68-.834-2.502-.076-4.625-1.895-5.08-4.322v-.075c0-.228-.076-.38-.076-.607-.303-3.488 2.654-6.369 6.142-6.293 4.7.152 9.477.228 14.177.379 10.691.304 21.305-2.047 30.934-6.672l7.506-3.639c5.459-2.654 9.477-7.582 10.918-13.496v-.151a176.24 176.24 0 004.321-26.991c2.73-30.707.455-53.3 6.976-55.726z" fill="#39424E"/><path d="M381.798 84.715c-.379.303-1.062.683-1.896.986a5.117 5.117 0 01-2.881 0" stroke="#39424E" stroke-width=".768" stroke-miterlimit="10" stroke-linecap="round"/><path d="M378.765 88.203c-1.971 3.942-2.578 6.293-1.744 6.975.304.303.91.303 1.744 0" stroke="#39424E" stroke-width=".576" stroke-miterlimit="10"/><path d="M377.855 60.681c-.455.682-.909 1.592-1.137 2.881-.606 2.73.379 5.004.758 5.838l-4.776-2.957c.53 4.55 2.35 6.824 3.487 7.81 1.593 1.44 3.64 2.122 7.81 3.487 4.321 1.44 5.307 1.213 6.975 2.578 2.35 1.895 3.26 4.549 3.487 5.231 1.062 3.185.304 5.99.834 6.066.455.076.683-2.199 2.578-3.488.152-.076 2.123-1.365 4.094-.455 1.365.607 1.896 1.896 1.972 2.199.758 1.895 0 4.246-1.896 5.99.228.379 1.972 2.956 4.398 2.88 2.274 0 3.715-2.122 4.852-3.866 1.137-1.668 2.275-4.019 2.729-7.506.228-1.82 1.593-12.813-4.018-15.846-1.213-.682-2.502-.758-3.108-.758-1.441-3.791-3.336-5.383-4.701-6.217-4.398-2.502-8.568.303-15.694-.834-3.867-.531-6.9-1.971-8.644-3.033z" fill="#39424E"/><path opacity=".17" d="M394.384 105.565c2.502-2.426 3.26-2.805 3.487-2.578.379.304-.53 2.047-.834 2.578a14.858 14.858 0 01-1.743 2.578 94.914 94.914 0 01-.91-2.578z" fill="#39424E"/><path d="M393.55 115.952c.075-2.577 1.668-4.928 4.018-5.989l2.047-.91c5.99-2.275 11.449-2.123 14.785-1.744.985 1.213 2.198 2.957 3.487 5.232.834 1.516 4.019 7.43 5.232 16.528.455 3.639.303 7.354 0 14.784-.304 7.734-.683 7.355-.834 13.951-.076 2.805 0 3.184 0 14.784v7.809c0 16.756-.152 19.334-.834 22.67a51.808 51.808 0 01-3.488 10.463c-13.344-9.553-23.124-18.272-36.468-27.901.303-2.275.606-4.625.834-6.975.758-6.217 2.653-11.449 3.108-17.363.834-4.094 4.322-7.051.531-8.719-3.488-1.516-3.564-.379-4.473-2.577-1.062-2.654-2.123-8.947.379-12.738 2.578-3.867 8.34-11.752 9.932-13.495 1.061-1.138 1.971-1.972 2.578-2.578-.379-.986-.91-2.881-.834-5.232z" fill="#32C766" stroke="#39424E" stroke-width=".758" stroke-miterlimit="10"/><path opacity=".17" d="M394.384 121.259a23.051 23.051 0 013.487-2.577c4.701-2.806 8.795-2.957 8.719-3.488-.075-.455-3.487-.758-6.975 0-2.729.607-4.776 1.744-6.065 2.578.303 1.137.606 2.35.834 3.487z" fill="#39424E"/><path d="M395.218 136.954l-3.412 12.206a210.8 210.8 0 00-5.232-1.744c-6.292-1.971-11.372-3.032-13.95-3.487-3.184-.607-7.733-1.365-13.041-1.744a54.302 54.302 0 00-8.719 0c-2.426.227-3.715.303-5.231.834-3.791 1.365-5.99 4.018-6.975 5.231-2.578 3.185-4.17 7.355-3.488 7.81.303.227 1.061-.304 1.744-.834 0 .758.303 1.516.834 1.744.758.379 2.123-.228 2.578-1.744-.228.53-.38 1.364 0 1.744.985 1.061 4.928-1.138 6.065-1.744 4.246-2.275 4.625-3.791 6.975-4.322 1.971-.455 3.488.228 6.975 1.744 10.084 4.549 14.785 6.975 14.785 6.975 18.196 9.477 1.895.834 10.463 5.232 2.805 1.44 6.368 3.26 11.297 3.487h1.743c7.279-.531 13.041-19.712 13.875-22.442-1.895 0-5.459-.152-9.401-2.047-4.322-2.275-6.824-5.383-7.885-6.899z" fill="#E7EEEF"/><path d="M395.218 136.954l-3.412 12.206a210.8 210.8 0 00-5.232-1.744c-6.292-1.971-11.372-3.032-13.95-3.487-3.184-.607-7.733-1.365-13.041-1.744a54.302 54.302 0 00-8.719 0c-2.426.227-3.715.303-5.231.834-3.791 1.365-5.99 4.018-6.975 5.231-2.578 3.185-4.17 7.355-3.488 7.81.303.227 1.061-.304 1.744-.834 0 .758.303 1.516.834 1.744.758.379 2.123-.228 2.578-1.744-.228.53-.38 1.364 0 1.744.985 1.061 4.928-1.138 6.065-1.744 4.246-2.275 4.625-3.791 6.975-4.322 1.971-.455 3.488.228 6.975 1.744 10.084 4.549 14.785 6.975 14.785 6.975 18.196 9.477 1.895.834 10.463 5.232 2.805 1.44 6.368 3.26 11.297 3.487h1.743c7.279-.531 13.041-19.712 13.875-22.442-1.895 0-5.459-.152-9.401-2.047-4.322-2.275-6.824-5.383-7.885-6.899z" stroke="#39424E" stroke-width=".768" stroke-miterlimit="10"/><path d="M336.99 155.226c.53-1.213 1.288-2.73 2.577-4.322a16.465 16.465 0 012.578-2.578M340.401 156.06a19.173 19.173 0 012.578-3.488 14.292 14.292 0 013.488-2.577" stroke="#39424E" stroke-width=".576" stroke-miterlimit="10"/><path d="M419.631 209.208c-1.82-2.805-4.094-5.838-6.975-8.719-12.207-12.282-27.37-15.543-34.801-16.528-5.383-1.441-13.116-3.336-22.669-5.232-29.266-5.838-35.18-3.715-38.061-2.274-5.383 2.654-7.733 6.444-16.149 21.608-6.369 11.524-13.495 24.717-21.229 39.349 1.896.531 3.791 1.138 5.762 1.744 3.261.986 6.445 2.047 9.553 3.109 6.293-6.369 12.814-13.572 19.41-21.684 6.141-7.506 11.524-14.86 16.301-21.836 11.903 7.885 22.517 13.117 30.478 16.529 8.644 3.715 14.633 5.534 25.248 8.719 3.866 1.137 5.534 1.592 7.809 1.743.758.076 15.997.91 22.669-9.553.986-1.516 2.123-3.79 2.654-6.975z" fill="#39424E"/><path opacity=".13" d="M330.848 198.745c3.564 1.062 9.098 2.73 15.695 5.232 7.961 3.032 9.174 4.094 18.272 7.809 10.387 4.246 16.225 6.596 24.413 7.809 5.99.91 10.311 1.516 15.694 0 7.885-2.274 12.662-7.657 14.785-10.463-.531 2.123-1.668 5.535-4.322 8.719-6.065 7.127-15.163 7.658-18.272 7.81-4.852.303-9.705-1.289-19.182-4.322-2.881-.91-10.463-3.488-20.016-7.809a193.424 193.424 0 01-20.016-10.463c-2.956-1.668-5.307-3.184-7.051-4.322z" fill="#39424E"/><path d="M330.848 167.812v111.452" stroke="#39424E" stroke-width="2.303" stroke-miterlimit="10"/><path d="M234.628 158.714h119.724v10.462H234.628v-10.462z" fill="#E7EEEF"/><path d="M234.628 158.714h119.724v10.462H234.628v-10.462z" stroke="#39424E" stroke-width=".768" stroke-miterlimit="10"/><path opacity=".19" d="M234.855 165.31h118.966v3.866H234.855v-3.866z" fill="#39424E"/><path d="M387.257 129.6c2.805-3.943 5.61-6.672 7.657-8.416 1.668-1.441 3.109-2.73 5.383-3.867 3.336-1.668 6.445-2.199 8.416-2.275M394.156 105.793a14.67 14.67 0 002.275-1.517 14.196 14.196 0 001.516-1.516M398.781 89.644c.607-.683 1.516-.986 2.275-.759 1.061.304 1.44 1.365 1.516 1.517.531 1.592-.682 2.957-.758 3.108-1.137 1.213-2.73 1.137-2.881 1.062M380.964 82.29c-.152-.91-.91-1.517-1.668-1.517-.834 0-1.365.758-1.441.834" stroke="#39424E" stroke-width=".768" stroke-miterlimit="10" stroke-linecap="round"/><path d="M391.806 149.085c.455.379 1.061 1.061 1.592 1.971.455.758.682 1.516.834 2.047" fill="#E7EEEF"/><path d="M391.806 149.085c.455.379 1.061 1.061 1.592 1.971.455.758.682 1.516.834 2.047M394.914 138.015c2.427-8.643 6.142-14.936 9.553-16.907 1.82-1.062 3.64-1.213 3.64-1.213 2.881-.228 5.155 1.061 6.065 1.668M412.428 146.507l3.109-7.43" stroke="#39424E" stroke-width=".768" stroke-miterlimit="10" stroke-linecap="round"/><path d="M114.68 223.298c-4.322 8.112-8.719 16.225-13.041 24.413l-10.463-5.231c3.184-7.809 6.369-15.694 9.553-23.504 4.701 1.441 9.326 2.881 13.951 4.322z" fill="#E7EEEF" stroke="#39424E" stroke-width=".576" stroke-miterlimit="10"/><path d="M127.796 205.936c-5.838 8.415-11.6 16.831-17.438 25.247-1.516-.076-3.26-.379-5.231-.834-3.412-.91-5.99-2.275-7.81-3.488 3.488-9.022 6.976-17.968 10.463-26.991 2.881-1.44 5.838-2.881 8.719-4.321 3.715 3.411 7.506 6.899 11.297 10.387zM92.086 239.902c1.213 1.516 4.246 4.852 8.719 5.231a6.691 6.691 0 001.744 0c2.881 3.412 5.231 6.445 6.975 8.719 4.549 5.99 6.217 8.72 5.232 10.463-.304.455-.607.759-.834.834-2.351 1.517-6.218-.682-17.438-7.809-6.597-4.246-8.72-5.686-8.72-7.809 0-.758.91-2.578 2.578-6.066.683-1.592 1.29-2.805 1.744-3.563z" fill="#39424E"/><path d="M138.259 154.531h-35.71v6.975h35.71v-6.975z" stroke="#39424E" stroke-width=".576" stroke-miterlimit="10"/><path d="M146.902 159.459h25.627c2.426 0 4.7-1.213 6.065-3.26 1.365-2.047 1.592-4.549.682-6.823l-8.491-21.002-4.246 1.744 8.492 21.001c.379.834.227 1.744-.228 2.502-.531.759-1.365 1.213-2.274 1.213h-25.627v4.625z" fill="#E7EEEF"/><path d="M146.902 159.459h25.627c2.426 0 4.7-1.213 6.065-3.26 1.365-2.047 1.592-4.549.682-6.823l-8.491-21.002-4.246 1.744 8.492 21.001c.379.834.227 1.744-.228 2.502-.531.759-1.365 1.213-2.274 1.213h-25.627v4.625z" stroke="#39424E" stroke-width=".768" stroke-miterlimit="10"/><path d="M173.893 105.78c-1.743 10.766-3.487 21.457-5.231 32.223h-4.322c1.744-10.994 3.488-22.063 5.232-33.057l4.321.834z" fill="#E7EEEF"/><path d="M173.893 105.78c-1.743 10.766-3.487 21.457-5.231 32.223h-4.322c1.744-10.994 3.488-22.063 5.232-33.057l4.321.834z" stroke="#39424E" stroke-width=".768" stroke-miterlimit="10"/><path d="M166.981 89.278l-8.84 55.789 6.44 1.02 8.84-55.79-6.44-1.02z" fill="#E7EEEF"/><path d="M166.981 89.278l-8.84 55.789 6.44 1.02 8.84-55.79-6.44-1.02z" fill="#B7C9CC" stroke="#39424E" stroke-width=".768" stroke-miterlimit="10"/><path d="M199.596 168.027v111.452M77.15 225.952l9.553 54.816M34.54 226.558a19579.303 19579.303 0 00-14.936 53.603" stroke="#39424E" stroke-width="2.303" stroke-miterlimit="10"/><path d="M153.878 95.317c-6.066-5.231-12.207-10.462-18.273-15.694M146.068 96.227c-2.578-1.743-5.231-3.487-7.809-5.231M146.902 111.012l-33.056-17.363M135.605 112.756c-2.047-.834-4.094-1.744-6.065-2.578M143.415 118.897h-6.066M143.415 128.45l-14.785.834M130.374 121.475h-16.528M143.415 136.259c-4.094 1.441-8.113 2.881-12.207 4.322" stroke="#B7C9CC" stroke-width=".576" stroke-miterlimit="10" stroke-linecap="round"/><path d="M65.095 76.211a32.748 32.748 0 012.578 6.976c1.743 7.126 2.35 20.091-4.322 23.503-.986.455-4.322 1.896-10.463-.834-.834 2.35-1.744 4.625-2.578 6.975-5.838-.834-11.6-1.743-17.438-2.577 1.213-2.048 4.642-5.07 5.628-8.254 1.44-4.473 1.5-7.619 1.5-10.5 3.336-9.401 8.49-16.274 16.376-16.88 1.82-.304 4.928-.228 8.719 1.591z" fill="#E7EEEF"/><path d="M65.095 76.211a32.747 32.747 0 012.578 6.976c1.743 7.127 2.35 20.091-4.322 23.503-.986.455-4.322 1.896-10.463-.834-.834 2.35-1.744 4.625-2.578 6.975-5.838-.834-11.6-1.743-17.438-2.577 1.213-2.048 4.322-4.019 5.383-7.203C39.695 98.578 40 94.635 40 91.754c3.26-9.553 8.492-16.68 16.377-17.286 1.82-.152 4.928-.076 8.719 1.743z" stroke="#39424E" stroke-width=".768" stroke-miterlimit="10"/><path d="M154.029 212.532c5.156 9.856 9.402 17.514 11.979 22.366.759 1.441 2.047 4.397 5.004 7.278l3.791 3.791a17.83 17.83 0 01-6.975 3.488c-5.307 1.289-9.705-.227-11.297-.834a419.167 419.167 0 01-4.321-6.065c-3.336-4.701-6.521-9.326-9.554-13.951 3.716-5.383 7.582-10.766 11.373-16.073z" fill="#E7EEEF" stroke="#39424E" stroke-width=".576" stroke-miterlimit="10"/><path d="M172.15 243.39c-.759.606-1.593 1.213-2.578 1.743-5.914 3.109-12.283 1.668-14.785.834.152 1.668.455 4.095.834 6.976.531 3.639.683 4.018.834 4.321 1.592 2.957 6.824 2.73 13.951 2.578 17.059-.227 23.124.531 24.413-2.578.531-1.213.076-2.426 0-2.578-1.061-2.956-5.686-3.335-9.553-4.321-3.412-.91-7.961-2.805-13.116-6.975zM15.207 115.333c-2.578-.985-4.322 0-4.322 0-.758.38-2.199 1.289-2.578 6.066-.91 10.311 1.138 12.207 1.138 12.207s1.516 6.065 4.321 21.759c2.199 12.207 3.033 21.684 3.488 28.735 0 0 1.137 18.955 4.321 32.223.38 1.516 1.062 4.473 3.488 6.975 2.047 2.123 4.473 3.033 6.066 3.488 12.737 3.715 42.988 1.743 43.519 1.743 3.867-.227 9.553-.606 16.68-.834 2.502-.075 4.625-1.895 5.08-4.321v-.076c0-.227.075-.379.075-.607.304-3.487-2.653-6.368-6.14-6.292-4.702.151-9.478.227-14.179.379-10.69.303-21.305-2.047-30.933-6.672l-7.506-3.64c-5.46-2.653-9.478-7.581-10.918-13.495v-.152a176.365 176.365 0 01-4.322-26.991c-2.73-30.63-.682-47.993-7.278-50.495z" fill="#39424E"/><path d="M65.55 84.93c.379.304 1.061.683 1.895.986a5.119 5.119 0 002.881 0M61.531 98.199c.38.303 1.062.682 1.896.985 1.289.38 2.35.152 2.881 0" stroke="#39424E" stroke-width=".768" stroke-miterlimit="10" stroke-linecap="round"/><path d="M68.582 88.418c1.972 3.942 2.578 6.293 1.744 6.975-.303.303-.91.303-1.743 0" stroke="#39424E" stroke-width=".576" stroke-miterlimit="10"/><path opacity=".17" d="M52.888 105.78c-2.502-2.426-3.26-2.805-3.487-2.577-.38.303.53 2.047.833 2.577a14.792 14.792 0 001.744 2.578c.38-.834.607-1.668.91-2.578z" fill="#39424E"/><path d="M64.943 178.944c.303 2.351.53 4.701.834 6.976-13.344 9.553-23.124 18.272-36.468 27.901-1.971-4.322-2.957-7.961-3.488-10.463-.682-3.336-.834-5.914-.834-22.67v-7.809c0-11.6.076-11.979 0-14.784-.151-6.597-.53-6.142-.834-13.951 0-.682-.076-1.365-.076-2.047-.227-6.141-.303-9.553.076-12.813 1.213-9.098 4.398-15.012 5.232-16.528 1.289-2.199 2.502-4.019 3.487-5.232 2.957-.379 7.506-.531 12.586.986.076 0 .152 0 .227.076.683.227 1.365.454 1.972.682.758.303 1.44.606 2.123.91 2.35 1.137 3.942 3.412 4.018 5.989v.076c.076 2.275-.455 4.17-.834 5.232.682.606 1.592 1.516 2.578 2.577 1.592 1.744 7.278 9.629 9.932 13.496 2.502 3.791 1.44 10.084.379 12.737-.834 2.123-.986.986-4.473 2.578-3.791 1.668-.38 4.625.53 8.719.38 5.914 2.35 11.07 3.033 17.362z" fill="#575A8F" stroke="#39424E" stroke-width=".758" stroke-miterlimit="10"/><path opacity=".17" d="M52.888 121.474a23.125 23.125 0 00-3.487-2.577c-4.625-2.881-8.72-3.033-8.72-3.488.076-.455 3.488-.758 6.976 0 2.73.607 4.776 1.744 6.065 2.578a58.137 58.137 0 01-.834 3.487z" fill="#39424E"/><path d="M52.13 137.169l3.412 12.207a206.5 206.5 0 015.231-1.744c6.293-1.971 11.373-3.033 13.95-3.488 3.185-.606 7.734-1.365 13.041-1.744a54.423 54.423 0 018.72 0c2.426.228 3.714.304 5.231.834 3.791 1.365 5.989 4.019 6.975 5.232 2.578 3.184 4.17 7.354 3.488 7.809-.304.227-1.062-.303-1.744-.834 0 .758-.303 1.516-.834 1.744-.758.379-2.123-.228-2.578-1.744.228.531.379 1.365 0 1.744-.986 1.061-4.928-1.137-6.065-1.744-4.246-2.274-4.625-3.791-6.976-4.322-1.97-.454-3.487.228-6.975 1.744-10.084 4.549-14.784 6.975-14.784 6.975-18.197 9.478-1.896.834-10.463 5.232-2.805 1.44-6.369 3.26-11.297 3.488h-1.744c-7.278-.531-13.04-19.713-13.875-22.443 1.896 0 5.46-.151 9.402-2.047 4.246-2.274 6.748-5.383 7.885-6.899z" fill="#E7EEEF"/><path d="M52.13 137.169l3.412 12.207a206.5 206.5 0 015.231-1.744c6.293-1.971 11.373-3.033 13.95-3.488 3.185-.606 7.734-1.365 13.041-1.744a54.423 54.423 0 018.72 0c2.426.228 3.714.304 5.231.834 3.791 1.365 5.989 4.019 6.975 5.232 2.578 3.184 4.17 7.354 3.488 7.809-.304.227-1.062-.303-1.744-.834 0 .758-.303 1.516-.834 1.744-.758.379-2.123-.228-2.578-1.744.228.531.379 1.365 0 1.744-.986 1.061-4.928-1.137-6.065-1.744-4.246-2.274-4.625-3.791-6.976-4.322-1.97-.454-3.487.228-6.975 1.744-10.084 4.549-14.784 6.975-14.784 6.975-18.197 9.478-1.896.834-10.463 5.232-2.805 1.44-6.369 3.26-11.297 3.488h-1.744c-7.278-.531-13.04-19.713-13.875-22.443 1.896 0 5.46-.151 9.402-2.047 4.246-2.274 6.748-5.383 7.885-6.899z" stroke="#39424E" stroke-width=".768" stroke-miterlimit="10"/><path d="M110.358 155.441c-.531-1.213-1.289-2.73-2.578-4.322a16.367 16.367 0 00-2.578-2.577M106.87 156.275a19.112 19.112 0 00-2.577-3.488 14.312 14.312 0 00-3.488-2.577" stroke="#39424E" stroke-width=".576" stroke-miterlimit="10"/><path d="M27.64 209.423c1.82-2.805 4.095-5.838 6.976-8.719 12.207-12.282 27.37-15.543 34.8-16.528 5.383-1.441 13.117-3.336 22.67-5.232 29.266-5.838 35.179-3.715 38.061-2.274 5.383 2.653 7.733 6.444 16.149 21.608 6.368 11.524 13.495 24.717 21.229 39.349-1.896.531-3.791 1.138-5.762 1.744-3.261.986-6.445 2.047-9.553 3.109-6.293-6.369-12.814-13.572-19.41-21.684-6.141-7.506-11.524-14.86-16.301-21.836-11.903 7.885-22.518 13.117-30.478 16.529-8.644 3.715-14.633 5.534-25.248 8.719-3.867 1.137-5.534 1.592-7.809 1.743-.758.076-15.997.91-22.67-9.553-.985-1.516-2.122-3.79-2.653-6.975z" fill="#39424E"/><path opacity=".13" d="M116.424 198.96c-3.564 1.062-9.099 2.73-15.695 5.232-7.96 3.033-9.174 4.094-18.272 7.809-10.387 4.246-16.225 6.596-24.413 7.809-5.99.91-10.311 1.517-15.694 0-7.886-2.274-12.662-7.657-14.785-10.463.53 2.123 1.668 5.535 4.322 8.72 6.065 7.126 15.163 7.657 18.272 7.809 4.852.303 9.705-1.289 19.182-4.322 2.88-.91 10.463-3.487 20.016-7.809a193.005 193.005 0 0020.015-10.463c2.957-1.668 5.384-3.184 7.052-4.322z" fill="#39424E"/><path d="M116.424 168.027v111.452" stroke="#39424E" stroke-width="2.303" stroke-miterlimit="10"/><path d="M212.644 158.929H92.92v10.462h119.724v-10.462z" fill="#E7EEEF"/><path d="M212.644 158.929H92.92v10.462h119.724v-10.462z" stroke="#39424E" stroke-width=".768" stroke-miterlimit="10"/><path opacity=".19" d="M212.417 165.525H93.451v3.866h118.966v-3.866z" fill="#39424E"/><path d="M60.09 129.814c-2.804-3.942-5.61-6.671-7.657-8.491-1.668-1.441-3.108-2.73-5.383-3.867-3.336-1.668-6.444-2.199-8.416-2.274M53.191 106.008a14.697 14.697 0 01-2.274-1.517 14.164 14.164 0 01-1.516-1.516M48.567 89.859c-.607-.683-1.517-.986-2.275-.759-1.061.304-1.44 1.365-1.516 1.517-.531 1.592.682 2.957.758 3.108 1.137 1.213 2.73 1.138 2.88 1.062M66.308 82.504c.152-.91.91-1.516 1.668-1.516.834 0 1.365.758 1.44.834" stroke="#39424E" stroke-width=".768" stroke-miterlimit="10" stroke-linecap="round"/><path d="M55.542 149.3c-.455.379-1.062 1.061-1.592 1.971-.455.758-.683 1.516-.834 2.047" fill="#E7EEEF"/><path d="M55.542 149.3c-.455.379-1.062 1.061-1.592 1.971-.455.758-.683 1.516-.834 2.047M52.433 138.23c-2.502-8.567-6.141-14.86-9.629-16.831-1.82-1.062-3.639-1.213-3.639-1.213-2.88-.228-5.155 1.061-6.065 1.668M34.92 146.722l-3.11-7.43" stroke="#39424E" stroke-width=".768" stroke-miterlimit="10" stroke-linecap="round"/><path d="M39.923 85.006c-.303 4.7.834 8.643 2.2 11.6-.987-.151-1.972-.606-2.73-1.516-2.427-3.033-2.957-8.188-2.957-8.947l.682-5.99c0-.075-.682 5.915-.682 5.915s0 15.77-3.488 21.001c-.986 1.289-2.274 3.564-3.488 5.762-.834 1.517-4.018 7.43-5.23 16.529-.456 3.26-.304 6.672-.077 12.813-.682-.076-1.44-.152-2.198-.303-2.957-.531-5.08-1.517-5.99-2.048-1.516-.834-8.947-4.7-10.387-12.964-.834-4.929.606-10.539 4.018-14.027 3.109-3.184 5.61-2.577 8.947-6.444 2.578-3.033 3.336-6.293 3.715-7.506 1.668-6.748-1.668-9.174-1.744-16.983-.076-3.488-.076-10.463 4.7-15.24 4.247-4.17 10.919-5.307 16.302-3.866 4.17 1.137 6.899 3.563 8.188 4.852-1.213.758-9.023 6.672-9.78 17.362z" fill="#39424E"/><path d="M58.802 83.186c-3.26 2.882-6.445 4.777-8.947 5.914-1.061-1.668-2.956-2.426-4.397-1.895-1.971.682-2.274 3.26-2.274 3.487-.152 1.896.91 3.867 2.805 5.232-.91.379-2.426.834-3.943.682-.985-.151-1.971-.606-2.73-1.516-2.35-3.033-2.88-8.188-2.88-8.947.075-3.411.682-9.401 4.928-13.798 2.199-2.275 5.155-3.867 8.34-4.777 7.278-2.047 13.647-1.137 16.149 4.322 2.047 4.624-4.625 9.098-7.051 11.296z" fill="#39424E"/><path d="M49.931 66.962c-7.809 2.577-13.344 10.007-13.495 17.665" stroke="#E7EEEF" stroke-width=".758" stroke-miterlimit="10"/></svg>